<?xml version="1.0" encoding="utf-8"?>
<!-- Generator: Adobe Illustrator 15.0.0, SVG Export Plug-In . SVG Version: 6.00 Build 0)  -->
<!DOCTYPE svg PUBLIC "-//W3C//DTD SVG 1.1//EN" "http://www.w3.org/Graphics/SVG/1.1/DTD/svg11.dtd">
<svg version="1.1" xmlns="http://www.w3.org/2000/svg" xmlns:xlink="http://www.w3.org/1999/xlink" x="0px" y="0px"
	 width="566.93px" height="566.93px" viewBox="0 0 566.93 566.93" enable-background="new 0 0 566.93 566.93" xml:space="preserve">
<g id="Ebene_1" display="none">
	<g display="inline">
		<path fill="#EC694D" d="M474.167,484.813c0,13.02-4.558,24.088-13.672,33.203c-9.114,9.113-20.183,13.672-33.203,13.672h-281.25
			c-13.021,0-24.088-4.559-33.203-13.672c-9.115-9.115-13.672-20.184-13.672-33.203v-343.75c0-13.021,4.557-24.088,13.672-33.203
			s20.182-13.672,33.203-13.672h78.125c0-16.927,6.185-31.576,18.555-43.945s27.018-18.555,43.945-18.555
			c16.927,0,31.575,6.185,43.945,18.555s18.555,27.018,18.555,43.945h78.125c13.021,0,24.089,4.557,33.203,13.672
			s13.672,20.182,13.672,33.203v6.313 M427.292,195.083v-48.161c0-1.302-0.651-2.604-1.953-3.906s-2.604-1.953-3.906-1.953h-41.016
			v35.156c0,3.255-1.14,6.022-3.418,8.301s-5.046,3.418-8.301,3.418H204.636c-3.255,0-6.022-1.139-8.301-3.418
			s-3.418-5.045-3.418-8.301v-35.156h-41.016c-1.302,0-2.604,0.651-3.906,1.953s-1.953,2.604-1.953,3.906v332.032
			c0,1.301,0.651,2.604,1.953,3.906c1.302,1.301,2.604,1.953,3.906,1.953h269.531c1.302,0,2.604-0.652,3.906-1.953
			c1.302-1.303,1.953-2.605,1.953-3.906V347.5 M286.667,70.75c-6.51,0-12.044,2.279-16.602,6.836s-6.836,10.091-6.836,16.602
			s2.279,12.044,6.836,16.602s10.091,6.836,16.602,6.836c6.511,0,12.044-2.279,16.602-6.836s6.836-10.091,6.836-16.602
			s-2.278-12.044-6.836-16.602S293.178,70.75,286.667,70.75z"/>
	</g>
	<path display="inline" d="M427.292,196.125"/>
	<path display="inline" d="M474.167,318"/>
	<g display="inline">
		<path fill="#EC694D" d="M216.941,224.598c-0.226,0-0.451,0.001-0.676,0.002c8.271,3.104,14.587,19.699,14.587,39.709
			c0,20.01-6.315,36.605-14.587,39.708c0.225,0.003,0.45,0.003,0.676,0.003c37.396,0,67.711-17.779,67.711-39.711
			C284.652,242.377,254.336,224.598,216.941,224.598z"/>
	</g>
	<path display="inline" fill="#EC694D" d="M211.7,224.598c-3.753,0-7.008,1.08-9.783,3.033c0.177-0.014,0.354-0.022,0.534-0.022
		c8.778,0,15.894,16.332,15.894,36.479c0,20.147-7.116,36.479-15.894,36.479c-0.429,0-0.854-0.04-1.274-0.116
		c2.93,2.292,6.43,3.57,10.524,3.57c9.39,0,17.002-17.778,17.002-39.711C228.702,242.377,221.09,224.598,211.7,224.598z"/>
	<path display="inline" fill="#EC694D" d="M187.728,264.31c0-10.015,1.738-19.442,4.894-26.546c1.374-3.092,2.958-5.597,4.688-7.463
		c-6.462,4.198-11.197,17.834-11.197,34.009c0,16.175,4.735,29.812,11.196,34.01c-1.73-1.866-3.314-4.371-4.688-7.464
		C189.466,283.752,187.728,274.324,187.728,264.31z"/>
	<path display="inline" fill="#EC694D" d="M198.666,287.754c-2.202-6.275-3.415-14.601-3.415-23.444
		c0-8.844,1.212-17.17,3.415-23.444c2.054-5.855,4.801-9.35,7.819-10.01c-1.511-1.183-3.129-1.844-4.811-1.883
		c-2.727,1.505-5.303,4.752-7.369,9.403c-3.072,6.915-4.764,16.125-4.764,25.935c0,9.81,1.692,19.02,4.764,25.934
		c2.066,4.652,4.642,7.898,7.369,9.403c1.682-0.04,3.299-0.7,4.811-1.884C203.466,297.103,200.72,293.608,198.666,287.754z"/>
	<path display="inline" fill="#EC694D" d="M205.15,285.2c-1.61-5.591-2.497-13.01-2.497-20.891s0.887-15.3,2.497-20.891
		c1.308-4.543,2.963-7.455,4.854-8.589c-0.609-0.926-1.249-1.756-1.914-2.479c-0.184-0.03-0.368-0.047-0.552-0.047
		c-2.676,0-5.373,3.31-7.398,9.081c-2.145,6.112-3.326,14.254-3.326,22.926c0,8.672,1.182,16.814,3.326,22.926
		c2.025,5.771,4.722,9.081,7.398,9.081c0.184,0,0.368-0.018,0.552-0.048c0.665-0.723,1.305-1.554,1.914-2.479
		C208.113,292.655,206.458,289.743,205.15,285.2z"/>
	<g display="inline">
		<path fill="#EC694D" d="M214.326,283.91c1.633-5.609,2.585-12.349,2.585-19.601s-0.953-13.992-2.585-19.6
			c-1.502,3.845-2.756,10.644-2.756,19.601C211.57,273.267,212.823,280.065,214.326,283.91z"/>
		<path fill="#EC694D" d="M210.007,264.31c0-8.5,1.249-17.378,3.617-21.822c-0.813-2.372-1.754-4.5-2.802-6.326
			c-3.306,1.949-6.605,12.965-6.605,28.148c0,15.183,3.299,26.199,6.605,28.148c1.044-1.822,1.984-3.944,2.795-6.308
			c-0.75-1.404-1.322-3.128-1.74-4.714C210.671,276.852,210.007,270.77,210.007,264.31z"/>
	</g>
	<rect x="216.969" y="306.364" display="inline" fill="#EC694D" width="5.79" height="5.789"/>
	<g display="inline">
		<path fill="#EC694D" d="M216.941,343.598c-0.226,0-0.451,0.002-0.676,0.002c8.271,3.104,14.587,19.699,14.587,39.71
			c0,20.01-6.315,36.605-14.587,39.708c0.225,0.003,0.45,0.003,0.676,0.003c37.396,0,67.711-17.779,67.711-39.711
			C284.652,361.377,254.336,343.598,216.941,343.598z"/>
	</g>
	<path display="inline" fill="#EC694D" d="M211.7,343.598c-3.753,0-7.008,1.08-9.783,3.033c0.177-0.014,0.354-0.023,0.534-0.023
		c8.778,0,15.894,16.332,15.894,36.48c0,20.146-7.116,36.479-15.894,36.479c-0.429,0-0.854-0.04-1.274-0.116
		c2.93,2.292,6.43,3.57,10.524,3.57c9.39,0,17.002-17.778,17.002-39.711S221.09,343.598,211.7,343.598z"/>
	<path display="inline" fill="#EC694D" d="M187.728,383.31c0-10.015,1.738-19.442,4.894-26.546c1.374-3.093,2.958-5.598,4.688-7.464
		c-6.462,4.198-11.197,17.835-11.197,34.009c0,16.176,4.735,29.813,11.196,34.011c-1.73-1.866-3.314-4.371-4.688-7.464
		C189.466,402.752,187.728,393.324,187.728,383.31z"/>
	<path display="inline" fill="#EC694D" d="M198.666,406.754c-2.202-6.275-3.415-14.601-3.415-23.444
		c0-8.845,1.212-17.17,3.415-23.444c2.054-5.855,4.801-9.35,7.819-10.01c-1.511-1.183-3.129-1.844-4.811-1.883
		c-2.727,1.505-5.303,4.752-7.369,9.402c-3.072,6.914-4.764,16.125-4.764,25.935s1.692,19.021,4.764,25.934
		c2.066,4.652,4.642,7.898,7.369,9.403c1.682-0.04,3.299-0.7,4.811-1.884C203.466,416.103,200.72,412.608,198.666,406.754z"/>
	<path display="inline" fill="#EC694D" d="M205.15,404.2c-1.61-5.591-2.497-13.01-2.497-20.891s0.887-15.3,2.497-20.892
		c1.308-4.543,2.963-7.454,4.854-8.589c-0.609-0.926-1.249-1.756-1.914-2.479c-0.184-0.029-0.368-0.047-0.552-0.047
		c-2.676,0-5.373,3.31-7.398,9.08c-2.145,6.112-3.326,14.254-3.326,22.927c0,8.672,1.182,16.814,3.326,22.926
		c2.025,5.771,4.722,9.081,7.398,9.081c0.184,0,0.368-0.018,0.552-0.048c0.665-0.723,1.305-1.554,1.914-2.479
		C208.113,411.655,206.458,408.743,205.15,404.2z"/>
	<g display="inline">
		<path fill="#EC694D" d="M214.326,402.91c1.633-5.609,2.585-12.349,2.585-19.602c0-7.252-0.953-13.991-2.585-19.6
			c-1.502,3.845-2.756,10.644-2.756,19.601C211.57,392.268,212.823,399.065,214.326,402.91z"/>
		<path fill="#EC694D" d="M210.007,383.31c0-8.501,1.249-17.378,3.617-21.822c-0.813-2.372-1.754-4.499-2.802-6.325
			c-3.306,1.949-6.605,12.965-6.605,28.147s3.299,26.199,6.605,28.148c1.044-1.822,1.984-3.944,2.795-6.308
			c-0.75-1.404-1.322-3.129-1.74-4.715C210.671,395.852,210.007,389.77,210.007,383.31z"/>
	</g>
	<rect x="216.969" y="425.364" display="inline" fill="#EC694D" width="5.79" height="5.789"/>
	
		<text transform="matrix(1 0 0 1 318.2539 296.3164)" display="inline" fill="#EC694D" font-family="'Roboto-Bold'" font-size="100">€</text>
	
		<text transform="matrix(1 0 0 1 318.2539 420.3164)" display="inline" fill="#EC694D" font-family="'Roboto-Bold'" font-size="100">€</text>
</g>
<g id="Ebene_2">
	<text transform="matrix(1 0 0 1 58.4648 439.334)" fill="#ED694D" font-family="'FontAwesome5FreeRegular'" font-size="400"></text>
</g>
</svg>
