<?xml version="1.0" encoding="utf-8"?>
<!-- Generator: Adobe Illustrator 15.0.0, SVG Export Plug-In . SVG Version: 6.00 Build 0)  -->
<!DOCTYPE svg PUBLIC "-//W3C//DTD SVG 1.1//EN" "http://www.w3.org/Graphics/SVG/1.1/DTD/svg11.dtd">
<svg version="1.1" id="Ebene_1" xmlns="http://www.w3.org/2000/svg" xmlns:xlink="http://www.w3.org/1999/xlink" x="0px" y="0px"
	 width="566.93px" height="566.93px" viewBox="0 0 566.93 566.93" enable-background="new 0 0 566.93 566.93" xml:space="preserve">
<g>
	<path fill="#EC694D" d="M410.167,484.813c0,13.02-4.558,24.088-13.672,33.203c-9.114,9.113-20.183,13.672-33.203,13.672H82.042
		c-13.021,0-24.088-4.559-33.203-13.672c-9.115-9.115-13.672-20.184-13.672-33.203v-343.75c0-13.021,4.557-24.088,13.672-33.203
		s20.182-13.672,33.203-13.672h78.125c0-16.927,6.185-31.576,18.555-43.945s27.018-18.555,43.945-18.555
		c16.927,0,31.575,6.185,43.945,18.555s18.555,27.018,18.555,43.945h78.125c13.021,0,24.089,4.557,33.203,13.672
		s13.672,20.182,13.672,33.203v6.313l-46.875,47.707v-48.161c0-1.302-0.651-2.604-1.953-3.906s-2.604-1.953-3.906-1.953h-41.016
		v35.156c0,3.255-1.14,6.022-3.418,8.301s-5.046,3.418-8.301,3.418H140.636c-3.255,0-6.022-1.139-8.301-3.418
		s-3.418-5.045-3.418-8.301v-35.156H87.901c-1.302,0-2.604,0.651-3.906,1.953s-1.953,2.604-1.953,3.906v332.032
		c0,1.301,0.651,2.604,1.953,3.906c1.302,1.301,2.604,1.953,3.906,1.953h269.531c1.302,0,2.604-0.652,3.906-1.953
		c1.302-1.303,1.953-2.605,1.953-3.906V347.5l21.433-3.029l25.442-25.054 M222.667,70.75c-6.51,0-12.044,2.279-16.602,6.836
		s-6.836,10.091-6.836,16.602s2.279,12.044,6.836,16.602s10.091,6.836,16.602,6.836c6.511,0,12.044-2.279,16.602-6.836
		s6.836-10.091,6.836-16.602s-2.278-12.044-6.836-16.602S229.178,70.75,222.667,70.75z"/>
</g>
<g>
	<path fill="#EC694D" d="M307.624,236.592v17.83H138.043v-17.83H307.624 M316.667,227.548H129v35.917h187.667V227.548
		L316.667,227.548z"/>
</g>
<g>
	<path fill="#EC694D" d="M307.624,313.252v17.831H138.043v-17.831H307.624 M316.667,304.209H129v35.917h187.667V304.209
		L316.667,304.209z"/>
</g>
<g>
	<rect x="152.899" y="391.002" fill="#EC694D" width="139.868" height="35.917"/>
</g>
<g>
	<path fill="#EC694D" d="M380.849,336.12l-52.734,5.859c-7.813,0.781-14.453-1.563-19.922-7.031s-7.813-12.109-7.031-19.922
		l5.859-52.734L461.122,108.19c6.641-6.641,14.746-9.961,24.316-9.961s17.676,3.32,24.316,9.961l25.195,25.195
		c6.641,6.641,9.961,14.746,9.961,24.316s-3.32,17.676-9.961,24.316L380.849,336.12z M442.958,166.198L333.974,275.183
		l-4.102,38.086l38.086-4.102l108.984-108.984L442.958,166.198z M489.833,128.112c-1.172-1.172-2.637-1.758-4.395-1.758
		s-3.223,0.586-4.395,1.758l-18.164,18.164l33.984,33.984l18.164-18.164c1.172-1.172,1.758-2.637,1.758-4.395
		s-0.586-3.223-1.758-4.395L489.833,128.112z"/>
</g>
<path d="M363.292,196.125"/>
</svg>
